<svg width="13669" height="13669" viewBox="0 0 13669 13669" fill="none" xmlns="http://www.w3.org/2000/svg">
<circle cx="6834.5" cy="6834.5" r="6834.5" fill="white"/>
<rect x="6704.16" y="7032.82" width="293.292" height="478.066" fill="#757575" fill-opacity="0.5"/>
<rect x="4161.32" y="6944.83" width="184.774" height="407.676" fill="#757575" fill-opacity="0.5"/>
<path fill-rule="evenodd" clip-rule="evenodd" d="M6738.13 2942.53C6699.2 2973.13 6691.92 3045.37 6723.26 3090.09C6741.81 3116.55 6740.44 3116.99 6586.17 3134.81C6500.46 3144.7 6428.76 3151.95 6426.81 3150.92C6424.86 3149.88 6429.42 3132.85 6436.94 3113.07C6453.1 3070.6 6433.86 3011.5 6397.56 2992.09C6299.31 2939.53 6181.35 3040.13 6238.68 3127.58C6250.53 3145.67 6257.76 3162.93 6254.72 3165.95C6251.7 3168.97 6198.17 3177.18 6135.76 3184.18C6073.33 3191.17 6006.41 3199.55 5987.04 3202.78C5954.94 3208.12 5952.5 3205.83 5959.72 3177.08C5972.33 3126.84 5954.86 3083.85 5913.06 3062.24C5824.17 3016.32 5738.31 3106.77 5786.09 3195.99C5801.18 3224.17 5786.94 3228.69 5642.25 3241.65L5542.79 3250.56L5550.9 3218.25C5570.7 3139.41 5439.54 3099.43 5377.53 3165.41C5347.78 3197.05 5347.5 3199.2 5368.33 3235.5C5389.32 3272.06 5389.17 3272.96 5361.73 3274.15C5346.28 3274.81 5276.25 3282.66 5206.11 3291.6C5089.79 3306.42 5085.32 3307.93 5155.1 3308.9C5197.18 3309.49 5702.18 3288.14 6277.32 3261.47C6852.46 3234.81 7325.16 3214.75 7327.77 3216.9C7332.57 3220.87 7270.59 3760.68 7258.23 3822.54C7252.12 3853.15 7261.59 3862.35 7368.11 3929.53L7484.67 4003.02L7875.7 4089.17C8090.76 4136.54 8268.41 4173.69 8270.48 4171.71C8272.54 4169.74 8098.96 4098 7884.71 4012.31C7670.47 3926.62 7495.19 3853.37 7495.19 3849.52C7495.19 3826.07 7612.8 3263.25 7620.8 3248.47C7644.84 3203.99 7873.5 3167.92 8238.02 3151.09C8416.34 3142.87 8426.14 3143.66 8426.34 3166.26C8426.47 3179.37 8402.3 3384.29 8372.63 3621.64L8318.7 4053.16L8361.94 4178.38L8405.18 4303.58L8389.33 4849.19C8380.62 5149.27 8368.2 5552.49 8361.75 5745.25C8355.3 5938 8349.91 6129.56 8349.81 6170.95L8349.61 6246.21L8078.62 6237.17L7807.62 6228.12L7568.51 6321.09L7329.4 6414.04V6559V6703.97L7358.1 6685.22C7373.89 6674.91 7507.3 6593.25 7654.59 6503.73L7922.4 6340.99L8139.03 6349.86C8258.16 6354.75 8358.04 6361.13 8360.97 6364.06C8363.9 6366.99 8369.07 6469.82 8372.45 6592.56L8378.59 6815.73H8311.53C8247.22 6815.73 8241.13 6812.62 8163.38 6739.93C8047.31 6631.43 7975.45 6617.03 7898.35 6686.84C7817.65 6759.9 7754.36 6966.73 7719.35 7271.86C7700.44 7436.65 7698.79 7442.19 7659.19 7475.76C7602.99 7523.4 7570.85 7545.54 7565.66 7540.24C7563.25 7537.77 7564.51 7449.81 7568.48 7344.75L7575.68 7153.76L7645.77 7080.32L7715.86 7006.89H7673.32C7603.35 7006.89 7486.35 7045.69 7454.62 7079.41C7429.5 7106.11 7423.8 7129.37 7416.76 7234.1C7412.21 7301.88 7407.9 7420.93 7407.2 7498.66C7405.93 7638.27 7406.32 7640.17 7438.4 7654.77C7503.34 7684.34 7607.27 7659.73 7654.53 7603.6C7671.2 7583.81 7688.07 7567.62 7692.02 7567.62C7695.99 7567.62 7699.1 7589.13 7698.96 7615.41C7698.49 7697.07 7644.09 7723.89 7359.42 7782.8L7118.99 7832.55L6921.32 7821.46C6812.61 7815.36 6261.7 7805.06 5697.08 7798.57C5132.46 7792.1 4560.04 7782.58 4425.02 7777.42C4289.99 7772.27 4179.53 7771.89 4179.53 7776.58C4179.53 7781.27 4194.03 7813.71 4211.76 7848.67C4235.42 7895.32 4239.66 7913.59 4227.7 7917.35C4218.74 7920.16 4131.07 7931.9 4032.88 7943.43C3722.9 7979.87 3077.69 8074.38 2687.48 8140.53C2188.78 8225.07 2141.01 8234.31 2171.01 8240.45C2185.03 8243.32 2411.01 8291.01 2673.17 8346.42L3149.85 8447.16L3286.23 8403.1C3819.98 8230.67 4525.93 8075.75 5147.14 7994.74C5309.12 7973.62 5333.9 7974.72 7037.33 8078.28L7261.74 8091.92L7413.53 8046.1C7497.02 8020.9 7575.38 7997.16 7587.64 7993.36C7604.34 7988.19 7609.96 7993.67 7609.96 8015.14C7609.96 8030.92 7622.1 8068.88 7636.92 8099.49C7651.75 8130.12 7661.8 8157.07 7659.24 8159.4C7656.69 8161.75 7508.26 8204.2 7329.4 8253.76C7003.86 8343.95 6447.36 8508.53 6438.72 8517.17C6430.13 8525.75 6519.08 8535.46 6974.41 8575.64L7429.22 8615.77L7631.17 8526.12C8625.33 8084.84 9783.72 7776.59 10944.7 7644.36C11071 7629.98 11254.2 7614.5 11351.9 7609.95C11616.3 7597.64 11528.4 7578.65 11170.4 7570.74C10903.4 7564.83 10874.1 7562.07 10881.7 7543.59C10886.4 7532.28 10893.2 7498.63 10896.8 7468.85L10903.4 7414.69H10983.3C11047.5 7414.69 11064.9 7410.31 11072.1 7392.39C11077 7380.13 11084.1 7288.67 11088 7189.14L11095.1 7008.2L11013.5 7003.62C10953.4 7000.26 10966.2 6998.41 11062.4 6996.6L11192.8 6994.14L11185 6952.73C11180.8 6929.94 11173.8 6907.65 11169.4 6903.19C11165.1 6898.73 10957.8 6888.52 10708.8 6880.52C10459.8 6872.52 10084 6860.27 9873.54 6853.28L9490.96 6840.6L9456.23 6799.49C9413.76 6749.21 9411.7 6726.7 9449.51 6725.94C9465.29 6725.62 9849.82 6752.67 10304 6786.06L11129.8 6846.76L11158.4 6818.16C11186.7 6789.88 11187.1 6784.4 11195.2 6321.56C11199.7 6064.17 11234.6 5485.88 11238.1 5300.14C11238.1 5191.82 11182.5 5160.71 11085 5089.87C11077 5105.82 11086.2 5543.2 11097.8 5956.45C11072 6345.46 11076.7 6656.31 11074.5 6658.87C11072.3 6661.45 10702 6615.98 10208.9 6555.14C9715.85 6494.3 9190.48 6429.64 9041.43 6411.44L8853.33 6396.11V6306.91C8853.33 6242.35 8832.37 6217.7 8853.33 6217.7C8866.63 6217.7 9288.51 6287.02 9862.63 6357.32C10436.8 6427.62 10929.4 6487.82 10957.5 6491.09C11015 6497.82 10608.9 6409.33 10084 6300.78C9054.8 6087.94 8862.82 6029.65 8853.33 6020.17C8835.13 6001.98 8831.77 5905.47 8853.33 5905.47C8907.39 5900.03 9086.28 5931.06 9374.68 5986.83C10615.9 6226.87 10962.6 6293.19 10972.5 6292.49C10985 6291.6 10712.4 6217.05 9625.26 5923.91C9180.09 5803.88 8919.14 5725.79 8853.33 5707.94C8848.33 5702.96 8873.37 5101.71 8878.84 5096.24C8881.73 5093.35 9345.45 5218.53 9955.27 5373.78C10565.1 5529.02 11068.8 5655.76 11074.5 5655.43C11085.6 5654.78 10346.6 5394.43 9403.37 5066.69L8878.84 4866.85V4777.64L8885.21 4688.44C8888.76 4584.66 8907.63 4493.99 8910.72 4490.91C8915.64 4486 9429.73 4711.21 10638.7 5205.65C10835.1 5285.96 11004.4 5355.12 11014.9 5359.34C11083.9 5386.98 10953.2 5317.36 10441 5053.84C10121.9 4889.62 9682.89 4664.35 9465.45 4553.21C9248.02 4442.08 9024.85 4327.03 8969.51 4297.54L8897.34 4255.15V4119.29C8897.34 3883.53 8928.88 3862.41 8948.98 3853.71C8986.63 3837.43 9619.68 4340.77 10224.2 4726.67C10524.9 4918.58 11079 5298.35 11082.9 5298.35C11082.7 5238.72 11078.6 5102.61 11085 5089.87C11053.8 5067.21 10877.2 4944.98 10701.1 4815.19C10525.1 4685.38 10050.4 4335.46 9646.25 4037.57L8911.47 3495.96L8911.09 3435.42C8910.88 3402.12 8913.15 3374.89 8916.14 3374.89C8919.12 3374.89 9416.94 3737.06 10022.4 4179.71C10627.9 4622.37 11143.4 4998.62 11167.9 5015.81L11212.6 5047.06L11172.6 5010.65C11150.7 4990.63 10615.1 4535.54 9982.37 3999.34L8832.01 3024.43L8772.53 3027.8C8739.82 3029.65 8581.51 3044.81 8420.74 3061.49L8128.42 3091.84L7862.68 3055.39L7596.94 3018.93L7268.7 3056.57C7088.17 3077.28 6933.43 3094.3 6924.83 3094.37C6913.32 3094.49 6912.47 3085.91 6921.64 3061.84C6940.16 3013.14 6937.32 2998.37 6901.06 2955.32C6860.29 2906.9 6790.43 2901.42 6738.13 2942.53ZM8043.55 3199.29C7943.66 3215.63 7950.71 3218.89 8128.34 3238.53C8238.27 3250.68 8266.19 3257.75 8264.17 3272.94C8254.72 3343.88 8168.22 3883.73 8162.66 3906.52C8156.15 3933.21 8148.19 3934.98 8019.95 3938.38L7884.14 3941.99L8058.82 4001.35L8233.51 4060.71L8246.95 3994.98C8268.37 3890.1 8308.46 3613.42 8331.01 3414.68C8350.09 3246.56 8350.12 3229.76 8331.36 3211C8305.92 3185.59 8162.95 3179.77 8043.55 3199.29ZM5018.81 3319.87C5028.01 3323.56 5039.01 3323.1 5043.25 3318.87C5047.48 3314.64 5039.96 3311.63 5026.51 3312.18C5011.66 3312.79 5008.64 3315.81 5018.81 3319.87ZM6251.82 3362.57C5781.89 3389.21 5322.79 3416.65 5231.61 3423.53L5065.83 3436.06L5282.62 3431.13C5401.86 3428.41 5828.61 3422.56 6230.94 3418.14L6962.48 3410.09L6954.21 3504C6949.67 3555.65 6942.82 3624.59 6939 3657.2L6932.02 3716.5L6834.21 3724.47C6698.12 3735.55 5019.68 3833.67 4966.13 3833.67H4922.48L4946.43 3716.95C4959.61 3652.76 4968.48 3598.33 4966.16 3596C4963.82 3593.66 4946.79 3642.27 4928.29 3704C4909.8 3765.73 4890.73 3826.52 4885.89 3839.08C4877.54 3860.85 4894.97 3861.55 5252.03 3853.94C5458.24 3849.56 5954.04 3839.8 6353.84 3832.25C6753.63 3824.72 7082.31 3817.04 7084.24 3815.18C7088.11 3811.43 7150.69 3352.56 7150.81 3327.1C7150.84 3318.34 7140.82 3311.83 7128.55 3312.65C7116.28 3313.45 6721.75 3335.92 6251.82 3362.57ZM4818.53 3478.01C4791.1 3536.95 4744.19 3653.98 4714.27 3738.09C4666.47 3872.49 4651.92 3899.21 4594.15 3958.69L4528.41 4026.35L4385.66 4033.89L4242.91 4041.41L4325.16 4096.55C4406.78 4151.27 4407.28 4151.96 4389.93 4187.02C4332.97 4302.16 4234.51 5177.35 4146.54 6350.43L4125.52 6630.64L4073.99 6720L4022.46 6809.36L4070.7 7198.04C4097.24 7411.82 4123.79 7595.33 4129.72 7605.85C4136.12 7617.2 4140.66 7569.73 4140.89 7488.83L4141.27 7352.69L4202.04 7393.25C4271.62 7439.68 4397.9 7485.42 4426.38 7474.5C4441.57 7468.67 4444.3 7451.48 4439.3 7393.11C4432 7307.96 4389.55 7014.11 4366.94 6892.19L4351.57 6809.36L4259.17 6805.61C4208.35 6803.56 4167.03 6797.82 4167.34 6792.87C4167.64 6787.92 4200.07 6763.8 4239.4 6739.27L4310.92 6694.66L4313.49 6172.16C4315.73 5717.07 4330.48 5411.73 4351.24 5390.99C4354.66 5387.58 4367.08 5392.78 4378.85 5402.53C4396.64 5417.28 4532.77 5420.21 5185.76 5419.87C6051.7 5419.41 6741.6 5398.1 6863.52 5368.05C6994.06 5335.87 7116.59 5237.11 7198.04 5098.43C7226.07 5050.69 7233.19 5011.01 7257.43 4767.18L7284.98 4490.17L7384.37 4476.42C7439.03 4468.86 7485.59 4465.95 7487.82 4469.96C7490.05 4473.96 7484.44 4591.93 7475.33 4732.11C7466.24 4872.29 7452.53 5093.08 7444.88 5222.75C7437.23 5352.42 7427.92 5491.48 7424.19 5531.79C7418.86 5589.3 7421.25 5605.06 7435.25 5605.06C7468.37 5605.06 7627.95 5513.87 7840.5 5373.48L8051.91 5233.85L8079.9 4842.8C8095.3 4627.71 8111.15 4417.31 8115.13 4375.23L8122.36 4298.7L7825.91 4180.16C7597.08 4088.65 7527.06 4065.41 7518.9 4078.26C7513.09 4087.42 7508.25 4138.91 7508.13 4192.67L7507.94 4290.43L7411.03 4294.63C7357.74 4296.93 7311.73 4294.91 7308.8 4290.11C7305.86 4285.34 7308.98 4230.86 7315.71 4169.05C7322.44 4107.25 7329.56 4031.49 7331.52 4000.7L7335.08 3944.73L7214.29 3946.88C7147.85 3948.07 6918.45 3954.53 6704.53 3961.25C6490.61 3967.96 6028.65 3981.97 5677.95 3992.37C5327.26 4002.77 4968.82 4014.67 4881.44 4018.82C4728.95 4026.05 4723.35 4025.42 4742.41 4003.29C4762.1 3980.43 4886.81 3389.28 4874.53 3377C4871.16 3373.63 4845.95 3419.08 4818.53 3478.01ZM8637.1 3696.67C8632.93 3852.63 8624.04 4318.57 8617.36 4732.11C8610.69 5145.65 8601.39 5714.83 8596.7 5996.94L8588.19 6509.88H8550.22H8512.24L8520.13 5996.94C8524.47 5714.83 8531.63 5204.26 8536.04 4862.35L8544.06 4240.72L8491.47 4165.8L8438.88 4090.86V3751.99V3413.12H8541.79H8644.7L8637.1 3696.67ZM7097.46 4149.08C7092.48 4175.08 7122.89 4173.41 5881.99 4215.52C5087.7 4242.49 4956.04 4248.77 5111.8 4252.3C5254.59 4255.54 5515.77 4278.71 5716.21 4305.9C6251.92 4378.61 6600.74 4511.98 6720.26 4689.8C6803.78 4814.1 6835.83 5033.77 6787.29 5149.42L6761.92 5209.91L6685.4 5209.75C6643.32 5209.66 6125.39 5221.82 5534.45 5236.77L4460.01 5263.95L4413.96 5228.85L4367.92 5193.76L4376.4 5115.85C4403.9 4863.5 4523.08 4211.65 4545.91 4188.84C4552.25 4182.51 4809.54 4171.39 5117.69 4164.14C5425.83 4156.9 5858.72 4146.41 6079.66 4140.87C6300.59 4135.31 6620.94 4129.87 6791.54 4128.78C7080.69 4126.92 7101.44 4128.29 7097.46 4149.08ZM7845.88 4250.57C7916.02 4275.33 7977.18 4299.19 7981.81 4303.58C7993.68 4314.86 7934.33 5133.4 7920.79 5145.14C7902.18 5161.27 7609.54 5350.19 7603.15 5350.19C7594.61 5350.19 7595.81 5228.48 7604.58 5205.63C7609.96 5191.61 7623.71 5188.35 7655.56 5193.51C7703.5 5201.29 7793.97 5180.09 7831.75 5152.24C7853.7 5136.06 7857.4 5101.76 7872.57 4773.99C7881.76 4575.73 7889.55 4386.28 7889.89 4352.98L7890.52 4292.45H7769.37H7648.22V4235.42C7648.22 4178.4 7648.23 4178.39 7683.29 4191.96C7702.57 4199.43 7775.74 4225.8 7845.88 4250.57ZM4231.05 4342.15L4174.17 4349.79L4145.52 4489.98C4108.87 4669.19 4077.51 4909.57 4077.51 5011.21C4077.51 5105.45 4097.26 5141.25 4142.47 5128.95C4209.33 5110.78 4211.55 5103.96 4268.07 4744.85C4297.86 4555.61 4325.27 4384.99 4328.99 4365.72C4336.41 4327.24 4338.4 4327.72 4231.05 4342.15ZM8033.98 5486.06L7979.78 5505.24V5631.61V5757.99H8049.92H8120.06V5611.44C8120.06 5449.65 8123.37 5454.44 8033.98 5486.06ZM8107.31 5630.55V5732.5H8062.68H8018.04V5642.89C8018.04 5561.86 8020.8 5552.16 8046.73 5541.74C8104.25 5518.63 8107.31 5523.13 8107.31 5630.55ZM6430.35 5677.68C5742.16 5705.67 4683.61 5730.7 4537.58 5749.67C4443.81 5761.84 4623.66 5756.52 5755.36 5784.86L6673.37 5803.93L6686.56 5880.18L6655.77 5934.44L5550.17 5934.44C4949.23 5939.18 4453.17 5926.32 4450.28 5929.22C4447.37 5932.11 4448.44 5945.31 4452.65 5958.54C4459.8 5981.07 4492.03 5984.01 4960.72 6004.81C5235.96 6017.03 5705.05 6038.18 6003.14 6051.79C6301.23 6065.41 6560.91 6076.56 6580.19 6076.57C6611.78 6076.59 6666.03 6086.3 6666.03 6126.55L6632.3 6182.27L5550.17 6182.27L4452.65 6189.61L4436.33 5977.32C4412.54 5877.17 4404.88 5906.02 4403.28 5908.04C4399.66 5912.63 4435.13 6476.45 4439.39 6480.69C4441.1 6482.4 4928.5 6504.54 5522.5 6529.9C6698.68 6580.12 6681.07 6580.41 6731.35 6509.88C6769.28 6456.68 6832.94 5855.03 6814 5728.78L6804.98 5668.78L6694.19 5671.52C6633.24 5673.03 6514.52 5675.79 6430.35 5677.68ZM5887.02 6298.85C6255.17 6316.04 6628.43 6329.45 6635.24 6336.25C6673.23 6374.22 6552.36 6382.44 5550.17 6382.44H4537.58L4523.71 6328.28C4516.08 6298.49 4507.64 6267.5 4504.97 6259.43C4502.3 6251.35 4502.17 6242.68 4504.69 6240.15C4509.41 6235.45 4719.83 6244.38 5887.02 6298.85ZM8089.86 6755.2C8182.69 6836.64 8222.08 6994.05 8222.08 7283.56C8222.08 7624.81 8141.05 8007.28 8068.75 8007.28C8043.06 8007.28 7997.91 7920.72 7974.03 7825.76C7943.87 7705.75 7927.17 7393.42 7941.92 7225.35C7965.13 6960.98 8057.13 6819.58 8106.19 6972.86C8113.29 6995.07 8127.92 7107.4 8138.68 7222.44C8149.46 7337.49 8161.88 7434.98 8166.29 7439.08C8183.03 7454.64 8159.98 7037.6 8139.93 6962.28C8111.66 6856.08 8095.3 6818.74 8073.34 6810.31C7993.98 6779.89 7907.69 6991.22 7870.79 7306.37C7851.15 7474.1 7832.22 7567.62 7817.92 7567.62C7807.83 7567.62 7822.66 7273.32 7839.38 7141.62C7866.75 6926.1 7925.46 6768.59 7991.87 6732.49C8036.32 6708.34 8036.49 6708.37 8089.86 6755.2ZM4686.44 6825.1C4579.24 6828.09 4536.68 6833.7 4536.88 6844.81C4537.84 6898.02 4631.3 7046.19 4680.59 7072.63C4786.75 7129.61 5165.85 7152.15 5830.98 7141.04C6154.31 7135.64 6359.77 7127.11 6392.09 7117.75C6462.78 7097.28 6543.36 7013.96 6561.5 6942.58C6569.41 6911.45 6571.83 6882.07 6566.88 6877.32C6524.62 6836.72 5394.5 6805.34 4686.44 6825.1ZM9370.67 6828.93C9405.62 6847.63 9453.98 6949.26 9472.37 7042.68C9494.2 7153.56 9480.96 7463.4 9447.8 7617.36C9433.62 7683.27 9417.44 7741.65 9411.86 7747.09C9406.26 7752.52 9386.38 7760.75 9367.67 7765.36C9324.35 7776.06 9314.53 7758.52 9286.54 7620.52C9270.26 7540.2 9266.3 7465.33 9269.7 7302.59C9273.83 7105.66 9276.55 7084.99 9306.05 7026.58C9323.58 6991.85 9345.19 6961.23 9354.05 6958.55C9381.8 6950.15 9404.74 7032.83 9420.49 7198.03C9428.84 7285.65 9438.8 7360.2 9442.63 7363.7C9458.12 7377.91 9434.84 7071.04 9414.38 6991.3C9386.89 6884.2 9367.6 6865.1 9326.18 6903.99C9288.22 6939.62 9231.25 7109.69 9222.26 7214.19C9211.58 7338.57 9189.55 7452.92 9176.3 7452.92C9169.11 7452.92 9167.29 7415.52 9171.79 7360.53C9175.95 7309.72 9182.44 7230.86 9186.22 7185.3C9200.29 7016.02 9251.63 6859.3 9302.77 6829.54C9331.41 6812.87 9340.49 6812.8 9370.67 6828.93ZM4245 6843.23C4284.51 6855.06 4294.3 6864.09 4294.3 6888.7C4294.3 6911.96 4288.9 6917.79 4271.99 6912.77C4259.7 6909.13 4233.88 6902.39 4214.6 6897.79C4188.44 6891.56 4179.53 6881.68 4179.53 6858.96C4179.53 6823.74 4179.75 6823.69 4245 6843.23ZM6918.14 6881.61C6982.27 6912.46 6997.84 6925.76 6997.84 6949.76C6997.84 6976.65 6990.67 6980.33 6924.51 6987.32C6884.18 6991.59 6835.4 6997.6 6816.12 7000.67C6781.66 7006.15 6781.03 7005.09 6780.64 6939.66L6780.24 6873.08L6749.22 6908.3C6693.88 6971.14 6636.22 7208.38 6619.52 7441.89C6608.47 7596.58 6604.84 7594.74 6909.97 7590.21L7144.49 7586.73L7178.71 7274.51C7197.53 7102.78 7210.45 6949.39 7207.4 6933.61C7204.37 6917.83 7198.9 6890.6 7195.26 6873.08L7188.64 6841.22L7013.54 6842.26L6838.43 6843.29L6918.14 6881.61ZM10690.3 6974.2C10726 7028.6 10739.7 7174.07 10723.3 7324.39C10707.6 7468.57 10688.4 7554.87 10672 7554.87C10629.5 7554.87 10599.8 7205.64 10632.5 7089.14C10659.2 6993.9 10678.2 7013.65 10696.4 7155.54L10707.6 7242.65L10702.1 7145.5C10688.7 6906.1 10624.2 6947.74 10594.9 7214.78C10588.9 7269.55 10580.5 7317.81 10576.2 7322.04C10564.1 7334.16 10567.2 7234.77 10582.4 7125.83C10605.9 6956.85 10643.9 6903.44 10690.3 6974.2ZM10510.4 6999.05C10533.2 7029.6 10537.3 7056.58 10541.1 7204.81C10545.7 7380.79 10528.1 7535.54 10499.1 7575.16C10483.7 7596.29 10481.7 7595.84 10466.8 7568.19C10458.1 7551.97 10444.8 7478.86 10437.2 7405.74C10421.7 7255.56 10437.4 7094.28 10470.9 7060.82C10491.9 7039.78 10495.1 7045.96 10509 7134.33C10512.5 7156.13 10514.2 7152.12 10514.5 7121.58C10515.1 7063 10501.5 7016.43 10481.9 7009.89C10456.5 7001.43 10429.2 7086.28 10413.1 7223.4C10404.8 7293.57 10393.2 7350.97 10387.2 7350.97C10381.3 7350.97 10379.3 7323.72 10382.8 7290.44C10386.3 7257.15 10392.7 7192.63 10396.9 7147.07C10405.5 7054.75 10445.1 6950.89 10468.7 6958.77C10477.2 6961.58 10495.9 6979.7 10510.4 6999.05ZM8850.14 7001.66C9085.82 7009.16 9102.01 7011.22 9102.01 7033.76C9102.01 7056.82 9086.76 7057.86 8751.31 7057.86H8400.62V7028.13C8400.62 6983.34 8411.5 6979.17 8508.76 6986.71C8558 6990.54 8711.63 6997.27 8850.14 7001.66ZM10364.5 7004.45C10364.5 7058.03 10339.9 7066.57 10141.3 7081.73C9881.51 7101.59 9905.42 7105.94 9905.42 7038.75V6981.4H10135C10347.9 6981.4 10364.5 6983.07 10364.5 7004.45ZM10871.3 7029.19C10908.4 7113.72 10889.3 7478.41 10847.9 7478.41C10800.9 7478.41 10781 7137.55 10824.1 7070.49C10834.9 7053.67 10837.9 7053.68 10849.7 7070.61C10860.3 7085.89 10862.2 7083.53 10859.2 7058.86C10847.4 6961.05 10785.3 7089.89 10785.3 7212.34C10785.3 7245.71 10779.6 7276.55 10772.6 7280.88C10756.6 7290.76 10756.6 7242.85 10772.6 7132.17C10794.7 6979.61 10832.4 6940.3 10871.3 7029.19ZM4312.54 7118.4C4316.81 7179.73 4322.96 7254.28 4326.18 7284.07L4332.08 7338.23H4255.8H4179.53V7172.56V7006.89H4242.14H4304.76L4312.54 7118.4ZM8051.7 7053.96C8047.22 7058.45 8043.55 7084.09 8043.55 7110.97C8043.55 7145.88 8049.01 7159.81 8062.68 7159.81C8076.45 7159.81 8081.8 7145.73 8081.8 7109.59C8081.8 7061.19 8068.7 7036.98 8051.7 7053.96ZM10865.1 7140.7C10865.2 7168.73 10867.8 7178.7 10870.9 7162.85C10873.9 7146.99 10873.8 7124.05 10870.6 7111.87C10867.4 7099.69 10864.9 7112.66 10865.1 7140.7ZM6985.12 7124.77C6985.19 7154.49 6958.27 7420.9 6952.29 7449.74C6946.68 7476.79 6940.13 7478.41 6836.74 7478.41H6727.14L6734.42 7424.25C6738.41 7394.47 6745.1 7324.21 6749.25 7268.14C6761.97 7096.68 6752.23 7108.84 6876.93 7108.84C6954.94 7108.84 6985.1 7113.27 6985.12 7124.77ZM9082.11 7245.83C9077.34 7314.17 9069.82 7373.85 9065.41 7378.46C9060.98 7383.06 8906.74 7390.95 8722.62 7396.01L8387.87 7405.18V7288.48C8387.87 7206.47 8392.61 7170.16 8403.81 7166.38C8412.58 7163.42 8557.47 7152.94 8725.81 7143.11C8894.14 7133.27 9045.13 7124.4 9061.33 7123.4C9090.77 7121.58 9090.79 7121.67 9082.11 7245.83ZM9344.31 7159.81C9344.31 7180.84 9350.04 7198.04 9357.06 7198.04C9364.07 7198.04 9369.81 7180.84 9369.81 7159.81C9369.81 7138.79 9364.07 7121.58 9357.06 7121.58C9350.04 7121.58 9344.31 7138.79 9344.31 7159.81ZM10339 7184.55C10339 7205.17 10334.7 7224.59 10329.4 7227.71C10324.2 7230.85 10226.6 7237.56 10112.6 7242.66L9905.42 7251.93V7219.53C9905.42 7189.94 9911.22 7186.46 9972.37 7179.3C10147 7158.86 10235 7150.24 10284.8 7148.73C10336.7 7147.15 10339 7148.69 10339 7184.55ZM10521 7223.53C10521 7255.07 10523.5 7267.97 10526.5 7252.21C10529.6 7236.44 10529.6 7210.62 10526.5 7194.86C10523.5 7179.09 10521 7191.99 10521 7223.53ZM7969.37 7282.71C7971.6 7309.74 7979.15 7330.43 7986.16 7328.67C8005.14 7323.93 8001.6 7245.67 7982.12 7239.18C7969.75 7235.05 7966.39 7246.51 7969.37 7282.71ZM4600.36 7274.84C4600.36 7342.23 4659.52 7432.25 4734.05 7478.27C4832.51 7539.06 5421.28 7578.91 5879.07 7555.75C6202.95 7539.36 6254.67 7529.35 6387.2 7457.25C6469.97 7412.23 6503.27 7366.01 6498.08 7303.31L6494.11 7255.39L5547.24 7252.13C4601.83 7248.87 4600.36 7248.89 4600.36 7274.84ZM8028.74 7296.81C8003.36 7369.08 8006.76 7551.8 8034.42 7602.66C8046.81 7625.45 8062.34 7644.08 8068.92 7644.08C8083.59 7644.08 8100.81 7611.9 8112.73 7562.2C8120.48 7529.84 8119.12 7527.05 8102.3 7540.99C8091.64 7549.84 8076.93 7553.37 8069.61 7548.84C8051.72 7537.8 8052.59 7381.7 8070.74 7347.84C8084.9 7321.38 8085.49 7321.33 8103.46 7345.49C8120.38 7368.26 8121.08 7367.24 8112.77 7331.86C8090.51 7237.16 8054.91 7222.3 8028.74 7296.81ZM9280.54 7292.87C9280.54 7309.99 9286.28 7327.52 9293.3 7331.86C9300.73 7336.46 9306.05 7323.5 9306.05 7300.75C9306.05 7279.31 9300.31 7261.76 9293.3 7261.76C9286.28 7261.76 9280.54 7275.76 9280.54 7292.87ZM9345.85 7284.37C9326.21 7321.05 9327.87 7417.53 9348.63 7445.9C9364.53 7467.63 9366.29 7467.73 9374.1 7447.39C9378.98 7434.67 9374.12 7417.19 9362.48 7405.54C9341.3 7384.38 9347.31 7326.63 9372.31 7311.2C9381.2 7305.7 9381.38 7295.6 9372.83 7280.36C9360.95 7259.14 9359.23 7259.39 9345.85 7284.37ZM10339 7331.86C10339 7356.39 10337.6 7376.51 10335.8 7376.59C10334.1 7376.65 10249.4 7390.94 10147.7 7408.32C9897.85 7451.04 9905.42 7451.63 9905.42 7389.2C9905.42 7349.42 9910.31 7338.07 9927.73 7337.54C9940 7337.16 10030.4 7326.3 10128.6 7313.4C10226.8 7300.52 10314.3 7289.35 10323.1 7288.6C10333 7287.76 10339 7303.95 10339 7331.86ZM9051 7477.84C9051 7507.2 9061.49 7505.01 8713.05 7548.51C8572.78 7566.04 8442.23 7583.09 8422.93 7586.41C8391.59 7591.83 8387.87 7588.68 8387.87 7556.78V7521.09L8665.23 7488.81C9028.35 7446.55 9051 7445.91 9051 7477.84ZM10218.2 7507.08C10223.1 7536.87 10232.9 7572.01 10239.8 7585.16C10256.7 7617.27 10239.5 7626.42 10143 7636.79C10100 7641.4 9939.68 7665.63 9786.73 7690.63C9633.79 7715.64 9506.71 7734.03 9504.34 7731.5C9501.98 7728.98 9507.92 7689.64 9517.55 7644.08C9527.18 7598.52 9535.19 7545.75 9535.33 7526.8C9535.58 7493.47 9537.56 7492.53 9596.17 7497.75C9813.57 7517.11 9888.4 7515.05 10032.9 7485.66C10113.6 7469.26 10186.3 7455.19 10194.4 7454.39C10202.6 7453.58 10213.3 7477.3 10218.2 7507.08ZM9318.8 7516.64C9318.8 7537.67 9324.54 7554.87 9331.55 7554.87C9338.57 7554.87 9344.31 7537.67 9344.31 7516.64C9344.31 7495.61 9338.57 7478.41 9331.55 7478.41C9324.54 7478.41 9318.8 7495.61 9318.8 7516.64ZM9408.07 7516.64C9408.07 7537.67 9413.81 7554.87 9420.82 7554.87C9427.83 7554.87 9433.57 7537.67 9433.57 7516.64C9433.57 7495.61 9427.83 7478.41 9420.82 7478.41C9413.81 7478.41 9408.07 7495.61 9408.07 7516.64ZM7976.35 7600.78C7962.63 7614.49 7965 7692.29 7979.41 7701.2C7997.08 7712.11 8010.65 7647.35 7997.08 7616.96C7990.81 7602.93 7981.49 7595.65 7976.35 7600.78ZM8135.15 7639.54C8137.38 7666.57 8144.93 7687.26 8151.94 7685.5C8170.92 7680.76 8167.39 7602.5 8147.9 7596.01C8135.53 7591.88 8132.18 7603.34 8135.15 7639.54ZM9357.06 7644.08C9357.06 7665.11 9362.8 7682.31 9369.81 7682.31C9376.82 7682.31 9382.56 7665.11 9382.56 7644.08C9382.56 7623.05 9376.82 7605.85 9369.81 7605.85C9362.8 7605.85 9357.06 7623.05 9357.06 7644.08ZM8990.64 7755.4C9001.84 7795.59 9009.12 7830.36 9006.82 7832.65C9004.53 7834.94 8880.1 7864.75 8730.32 7898.89C8580.54 7933.02 8397.88 7975.32 8324.37 7992.88C8250.88 8010.45 8189.03 8023.09 8186.92 8021C8184.83 8018.9 8189.7 8000.61 8197.76 7980.38C8205.81 7960.13 8219.2 7917.98 8227.52 7886.74L8242.61 7829.9L8586.23 7757.23C8775.22 7717.25 8938.94 7684.04 8950.06 7683.43C8964.14 7682.66 8976.47 7704.54 8990.64 7755.4ZM8035.77 7827.93C8025.11 7855.68 8035.22 7902.69 8053.11 7908.58C8064.12 7912.2 8069.05 7897.72 8069.05 7861.78C8069.05 7811.07 8049.77 7791.46 8035.77 7827.93ZM10135 7907.86C9772.64 7947.04 9165.57 8124.65 8521.77 8379.85C8203.51 8506 7865.08 8653.38 7871.13 8663.18C7874.28 8668.26 7944.49 8679.66 8027.15 8688.5L8177.45 8704.58L8292.22 8631.94C8635.54 8414.64 9153.02 8201.66 9701.38 8051.97C9873.83 8004.9 10245.9 7920.09 10332.6 7908.07C10380.4 7901.45 10196 7901.26 10135 7907.86Z" fill="black"/>
<path d="M4395.95 5889.12C4426.79 5901.3 4458.92 5925.16 4491.06 5925.16C5190.44 5923.68 5889.99 5918.91 6589.38 5917.43C6659.94 5917.43 6682.71 5892.9 6662.85 5815.22C5948.29 5798.76 5231.3 5782.13 4514.31 5765.51C4514.15 5756.78 4513.83 5748.22 4513.67 5739.5C5284.59 5709.05 6055.35 5678.6 6818.68 5648.48C6829.99 5662.8 6836.45 5667.24 6836.12 5671.19C6816.1 5935.7 6795.75 6200.2 6774.76 6464.54C6769.59 6530.22 6731.64 6561.32 6668.18 6562.48C6458.57 6566.59 6248.65 6580.75 6039.36 6573.01C5526.01 6554.25 5012.97 6525.44 4499.94 6500.92C4462.64 6499.11 4432.6 6496.64 4430.02 6444.96C4420.17 6253.7 4406.93 6062.77 4396.11 5889.12H4395.95ZM4443.42 5996.43C4451.17 6034.46 4457.95 6055.36 4459.41 6076.76C4465.06 6152.31 4504.14 6175.35 4576 6169.42C4656.26 6162.84 4737.32 6167.12 4818.06 6167.12C5399.08 6167.12 5980.1 6167.12 6561.12 6167.94C6617.8 6167.94 6657.85 6160.54 6630.07 6083.5C5903.72 6054.54 5178.82 6025.73 4443.42 5996.43ZM4511.41 6243.49C4507.21 6345.21 4540.63 6375.83 4629.13 6375C5263.27 6369.24 5897.58 6369.41 6531.73 6367.27C6558.05 6367.27 6584.53 6362.66 6610.85 6360.19L6609.08 6334.51C5910.98 6304.23 5212.73 6273.94 4511.57 6243.49H4511.41Z" fill="#CE093A"/>
<path d="M11067.7 6721.93L8876.43 6458.44L8833.46 6413.45L8912.23 3797.81L11103.5 5320.92L11067.7 6721.93Z" fill="#027BFF"/>
<path d="M8912.23 3797.81L11103.5 5320.92M8912.23 3797.81L9930.24 5400.33M8912.23 3797.81L8833.46 6413.45M11067.7 6721.93L8876.43 6458.44L8833.46 6413.45M11067.7 6721.93L11103.5 5320.92M11067.7 6721.93L10453.1 5591.87M11103.5 5320.92L10453.1 5591.87M9930.24 5400.33L10136.8 5706.52L10453.1 5591.87M9930.24 5400.33L8833.46 6413.45" stroke="black" stroke-width="85.0547" stroke-linejoin="round"/>
<path d="M2871.66 10250V10152.5L2958.53 10135.8V9564.48H2810.96L2802.05 9661.37H2678.97V9439.18H3402.37V9661.37H3278.74L3269.83 9564.48H3121.14V10135.8L3208.57 10152.5V10250H2871.66ZM3438.56 10250V10152.5L3516.53 10135.8V9762.17L3430.21 9745.46V9647.45H3668L3674.13 9722.07L3675.24 9735.44C3690.09 9702.77 3708.47 9678.08 3730.37 9661.37C3752.28 9644.67 3778.45 9636.31 3808.89 9636.31C3818.54 9636.31 3829.13 9637.24 3840.63 9639.1C3852.14 9640.58 3862.35 9642.63 3871.26 9645.22L3854 9795.03L3773.25 9790.57C3750.23 9789.46 3731.49 9793.36 3717.01 9802.27C3702.9 9811.18 3690.28 9823.98 3679.14 9840.69V10135.8L3757.1 10152.5V10250H3438.56ZM4175.32 10261.7C4111.84 10261.7 4061.9 10241.6 4025.52 10201.6C3989.51 10161.1 3971.5 10098.3 3971.5 10013.3V9762.17L3905.23 9745.46V9647.45H3971.5H4134.11V10014.4C4134.11 10057.5 4141.54 10088.5 4156.39 10107.4C4171.61 10126 4194.44 10135.3 4224.88 10135.3C4249.02 10135.3 4270.36 10130.6 4288.93 10121.4C4307.49 10111.7 4322.71 10098.2 4334.59 10080.7V9762.17L4262.75 9745.46V9647.45H4334.59H4497.2V10135.8L4569.6 10152.5V10250H4354.64L4343.5 10173.7C4324.57 10201.9 4300.81 10223.6 4272.22 10238.9C4243.63 10254.1 4211.33 10261.7 4175.32 10261.7ZM4913.75 10261.7C4855.83 10261.7 4805.71 10248.7 4763.39 10222.7C4721.44 10196.7 4689.14 10160.9 4666.49 10115.2C4643.85 10069.2 4632.52 10016.7 4632.52 9957.64V9940.93C4632.52 9881.53 4644.03 9829 4667.05 9783.33C4690.07 9737.67 4722.55 9701.84 4764.51 9675.85C4806.46 9649.49 4855.83 9636.31 4912.64 9636.31C4966.84 9636.31 5013.43 9644.85 5052.41 9661.93C5091.77 9678.64 5123.7 9698.13 5148.2 9720.4L5147.08 9893.04H5024.57L5002.85 9785.56C4993.94 9776.65 4982.62 9769.41 4968.88 9763.84C4955.15 9758.27 4941.22 9755.49 4927.12 9755.49C4897.41 9755.49 4872.73 9762.91 4853.05 9777.76C4833.74 9792.61 4819.27 9813.77 4809.61 9841.25C4799.96 9868.72 4795.13 9901.95 4795.13 9940.93V9957.64C4795.13 9998.85 4800.52 10032.8 4811.28 10059.5C4822.05 10085.9 4836.34 10105.4 4854.16 10118C4872.35 10130.6 4892.59 10137 4914.86 10137C4943.45 10137 4966.28 10129.5 4983.36 10114.7C5000.81 10099.5 5012.88 10078.1 5019.56 10050.6H5158.22L5159.89 10054C5153.58 10096.7 5140.96 10133.6 5122.02 10164.8C5103.46 10196 5077.1 10219.9 5042.95 10236.6C5009.16 10253.3 4966.1 10261.7 4913.75 10261.7ZM5223.93 10250V10152.5L5302.45 10135.8V9495.98L5215.58 9479.27V9381.26H5464.51V10135.8L5534.68 10152.5V10250H5223.93ZM5607.63 10250V10157.6L5653.29 10147L5652.18 10144.7L5533 9982.7L5636.59 9876.33L5834.28 10135.3L5908.9 10152.5V10250H5607.63ZM5447.24 10085.2L5369.28 9994.39L5631.02 9754.93L5632.13 9753.26L5570.32 9744.35V9647.45H5883.84V9745.46L5805.88 9764.95L5447.24 10085.2Z" fill="#CE093A"/>
<path d="M6241.36 10250V10152.5L6327.68 10135.8V9553.89L6241.36 9537.19V9439.18H6327.68H6568.25L6789.34 10004.4H6792.68L7006.52 9439.18H7333.97V9537.19L7247.09 9553.89V10135.8L7333.97 10152.5V10250H6998.17V10152.5L7088.94 10135.8V9980.47L7091.72 9614.6L7088.38 9614.04L6846.14 10238.9H6723.07L6475.25 9619.05L6471.91 9619.61L6481.38 9963.76V10135.8L6577.16 10152.5V10250H6241.36ZM7684.25 10261.7C7626.7 10261.7 7576.4 10249.1 7533.33 10223.8C7490.27 10198.2 7456.85 10163.1 7433.09 10118.6C7409.7 10074 7398.01 10023.2 7398.01 9965.99V9943.71C7398.01 9883.94 7409.15 9831.04 7431.42 9785C7453.7 9738.59 7485.07 9702.21 7525.54 9675.85C7566.37 9649.12 7614.45 9635.94 7669.77 9636.31C7724.34 9636.31 7770.19 9647.08 7807.32 9668.61C7844.45 9690.15 7872.66 9721.15 7891.97 9761.61C7911.27 9802.08 7920.92 9851.09 7920.92 9908.63V9997.17H7566.75L7565.63 10000.5C7567.86 10026.9 7574.36 10050.4 7585.12 10071.2C7596.26 10091.7 7611.85 10107.8 7631.9 10119.7C7651.95 10131.2 7676.27 10137 7704.85 10137C7734.55 10137 7762.21 10133.2 7787.83 10125.8C7813.82 10118 7839.06 10106.7 7863.57 10091.8L7907.56 10192.1C7882.68 10212.1 7851.31 10228.8 7813.45 10242.2C7775.95 10255.2 7732.88 10261.7 7684.25 10261.7ZM7567.86 9889.7H7768.89V9875.22C7768.89 9850.71 7765.55 9829.74 7758.87 9812.29C7752.56 9794.47 7742.16 9780.73 7727.69 9771.08C7713.58 9761.43 7695.2 9756.6 7672.55 9756.6C7651.02 9756.6 7632.83 9762.36 7617.98 9773.86C7603.13 9785 7591.43 9800.41 7582.9 9820.09C7574.73 9839.76 7569.16 9862.04 7566.19 9886.91L7567.86 9889.7ZM8254.5 10261.7C8209.58 10261.7 8167.62 10257.4 8128.64 10248.9C8090.03 10240.3 8052.91 10228.1 8017.26 10212.1L8015.59 10041.7H8128.64L8150.36 10128.6C8162.98 10134.9 8176.72 10139.9 8191.57 10143.6C8206.79 10147.3 8224.05 10149.2 8243.36 10149.2C8279.74 10149.2 8305.36 10143.3 8320.21 10131.4C8335.06 10119.5 8342.49 10104.7 8342.49 10086.8C8342.49 10070.1 8334.5 10055.5 8318.54 10042.8C8302.95 10029.8 8271.58 10018.5 8224.43 10008.9C8153.14 9994.02 8100.61 9971 8066.83 9939.82C8033.04 9908.63 8016.15 9868.72 8016.15 9820.09C8016.15 9786.67 8024.5 9756.23 8041.21 9728.76C8058.29 9701.28 8084.09 9679.19 8118.62 9662.49C8153.52 9645.78 8198.07 9637.43 8252.27 9637.43C8297.56 9637.43 8338.96 9641.88 8376.46 9650.79C8414.32 9659.33 8446.07 9670.65 8471.68 9684.76L8473.35 9849.6H8360.86L8343.6 9770.52C8333.57 9763.1 8321.69 9757.53 8307.96 9753.82C8294.59 9750.1 8279.37 9748.25 8262.29 9748.25C8233.71 9748.25 8211.8 9754 8196.58 9765.51C8181.36 9777.02 8173.75 9791.87 8173.75 9810.06C8173.75 9820.46 8176.35 9830.11 8181.55 9839.02C8187.11 9847.93 8197.88 9856.28 8213.84 9864.08C8229.81 9871.88 8253.01 9879.3 8283.46 9886.35C8358.08 9903.43 8412.47 9926.26 8446.62 9954.85C8480.78 9983.07 8497.86 10022.8 8497.86 10074C8497.86 10130.1 8477.44 10175.4 8436.6 10209.9C8396.13 10244.4 8335.43 10261.7 8254.5 10261.7ZM8830.32 10261.7C8785.39 10261.7 8743.44 10257.4 8704.46 10248.9C8665.85 10240.3 8628.72 10228.1 8593.08 10212.1L8591.41 10041.7H8704.46L8726.18 10128.6C8738.8 10134.9 8752.54 10139.9 8767.39 10143.6C8782.61 10147.3 8799.87 10149.2 8819.18 10149.2C8855.56 10149.2 8881.18 10143.3 8896.03 10131.4C8910.88 10119.5 8918.3 10104.7 8918.3 10086.8C8918.3 10070.1 8910.32 10055.5 8894.36 10042.8C8878.76 10029.8 8847.39 10018.5 8800.24 10008.9C8728.96 9994.02 8676.43 9971 8642.65 9939.82C8608.86 9908.63 8591.97 9868.72 8591.97 9820.09C8591.97 9786.67 8600.32 9756.23 8617.03 9728.76C8634.11 9701.28 8659.91 9679.19 8694.44 9662.49C8729.33 9645.78 8773.88 9637.43 8828.09 9637.43C8873.38 9637.43 8914.78 9641.88 8952.27 9650.79C8990.14 9659.33 9021.88 9670.65 9047.5 9684.76L9049.17 9849.6H8936.68L8919.42 9770.52C8909.39 9763.1 8897.51 9757.53 8883.78 9753.82C8870.41 9750.1 8855.19 9748.25 8838.11 9748.25C8809.52 9748.25 8787.62 9754 8772.4 9765.51C8757.18 9777.02 8749.57 9791.87 8749.57 9810.06C8749.57 9820.46 8752.17 9830.11 8757.36 9839.02C8762.93 9847.93 8773.7 9856.28 8789.66 9864.08C8805.63 9871.88 8828.83 9879.3 8859.27 9886.35C8933.9 9903.43 8988.28 9926.26 9022.44 9954.85C9056.6 9983.07 9073.67 10022.8 9073.67 10074C9073.67 10130.1 9053.25 10175.4 9012.42 10209.9C8971.95 10244.4 8911.25 10261.7 8830.32 10261.7ZM9349.33 10261.7C9289.56 10261.7 9242.04 10245.7 9206.77 10213.8C9171.5 10181.5 9153.87 10137.7 9153.87 10082.4C9153.87 10044.5 9164.07 10011.3 9184.49 9982.7C9205.28 9954.11 9235.73 9931.65 9275.82 9915.31C9316.29 9898.98 9366.04 9890.81 9425.07 9890.81H9504.7V9846.26C9504.7 9817.3 9496.16 9793.91 9479.09 9776.09C9462.38 9757.9 9437.13 9748.8 9403.35 9748.8C9385.9 9748.8 9370.12 9751.03 9356.01 9755.49C9342.28 9759.57 9329.84 9765.51 9318.7 9773.31L9305.89 9852.94H9188.95L9186.72 9696.46C9218.28 9678.64 9252.43 9664.16 9289.19 9653.02C9325.94 9641.88 9366.97 9636.31 9412.26 9636.31C9490.97 9636.31 9553.15 9654.69 9598.82 9691.45C9644.48 9727.83 9667.31 9779.99 9667.31 9847.93V10096.3C9667.31 10104.5 9667.31 10112.6 9667.31 10120.8C9667.68 10128.6 9668.43 10136.2 9669.54 10143.6L9732.47 10152.5V10250H9530.88C9526.79 10239.6 9522.71 10228.5 9518.62 10216.6C9514.54 10204.7 9511.57 10192.8 9509.71 10180.9C9490.41 10205.4 9467.58 10225.1 9441.22 10240C9415.23 10254.5 9384.6 10261.7 9349.33 10261.7ZM9392.77 10141.4C9415.42 10141.4 9436.95 10136.4 9457.37 10126.4C9477.79 10116 9493.56 10102.4 9504.7 10085.7V9990.49H9424.51C9388.87 9990.49 9361.77 9998.66 9343.21 10015C9325.01 10031.3 9315.92 10051 9315.92 10074C9315.92 10095.6 9322.6 10112.3 9335.97 10124.1C9349.7 10135.7 9368.64 10141.4 9392.77 10141.4ZM10056 10493.4C10025.6 10493.4 9991.42 10489.5 9953.55 10481.7C9915.68 10473.9 9882.27 10462.7 9853.31 10448.3L9883.38 10332.4C9909.37 10343.6 9936.84 10352.3 9965.8 10358.6C9995.13 10365.3 10022.4 10368.6 10047.7 10368.6C10091.1 10368.6 10122.8 10356.6 10142.9 10332.4C10163.3 10308.3 10173.5 10274.7 10173.5 10231.6V10192.1C10155.7 10214.7 10134.7 10232 10110.6 10243.9C10086.5 10255.8 10058.8 10261.7 10027.6 10261.7C9978.61 10261.7 9936.47 10249.4 9901.2 10224.9C9865.93 10200.1 9839.02 10165.4 9820.46 10120.8C9801.89 10076.3 9792.61 10024.5 9792.61 9965.43V9953.74C9792.61 9890.25 9801.89 9834.75 9820.46 9787.23C9839.02 9739.71 9865.56 9702.77 9900.09 9676.41C9934.62 9649.68 9976.01 9636.31 10024.3 9636.31C10060.3 9636.31 10091.3 9643.92 10117.3 9659.15C10143.3 9674 10165.4 9695.34 10183.5 9723.19L10195.2 9647.45H10336.7V10232.2C10336.7 10285.3 10325.4 10331.3 10302.7 10370.3C10280.4 10409.3 10248.3 10439.5 10206.4 10461.1C10164.4 10482.6 10114.3 10493.4 10056 10493.4ZM10073.3 10135.3C10096.3 10135.3 10116.2 10130.8 10132.9 10121.9C10149.6 10112.6 10163.1 10099.3 10173.5 10081.8V9820.09C10163.1 9801.89 10149.4 9787.79 10132.3 9777.76C10115.6 9767.74 10096.1 9762.73 10073.8 9762.73C10046 9762.73 10023.3 9770.89 10005.9 9787.23C9988.45 9803.19 9975.64 9825.47 9967.47 9854.06C9959.3 9882.27 9955.22 9915.5 9955.22 9953.74V9965.43C9955.22 10018.2 9964.32 10059.7 9982.51 10090.2C10000.7 10120.2 10031 10135.3 10073.3 10135.3ZM10316.1 9764.95L10245.4 9647.45H10407.4V9745.46L10316.1 9764.95ZM10739.3 10261.7C10681.8 10261.7 10631.5 10249.1 10588.4 10223.8C10545.3 10198.2 10511.9 10163.1 10488.2 10118.6C10464.8 10074 10453.1 10023.2 10453.1 9965.99V9943.71C10453.1 9883.94 10464.2 9831.04 10486.5 9785C10508.8 9738.59 10540.1 9702.21 10580.6 9675.85C10621.4 9649.12 10669.5 9635.94 10724.8 9636.31C10779.4 9636.31 10825.3 9647.08 10862.4 9668.61C10899.5 9690.15 10927.7 9721.15 10947 9761.61C10966.3 9802.08 10976 9851.09 10976 9908.63V9997.17H10621.8L10620.7 10000.5C10622.9 10026.9 10629.4 10050.4 10640.2 10071.2C10651.3 10091.7 10666.9 10107.8 10687 10119.7C10707 10131.2 10731.3 10137 10759.9 10137C10789.6 10137 10817.3 10133.2 10842.9 10125.8C10868.9 10118 10894.1 10106.7 10918.6 10091.8L10962.6 10192.1C10937.8 10212.1 10906.4 10228.8 10868.5 10242.2C10831 10255.2 10787.9 10261.7 10739.3 10261.7ZM10622.9 9889.7H10824V9875.22C10824 9850.71 10820.6 9829.74 10813.9 9812.29C10807.6 9794.47 10797.2 9780.73 10782.8 9771.08C10768.6 9761.43 10750.3 9756.6 10727.6 9756.6C10706.1 9756.6 10687.9 9762.36 10673 9773.86C10658.2 9785 10646.5 9800.41 10638 9820.09C10629.8 9839.76 10624.2 9862.04 10621.3 9886.91L10622.9 9889.7Z" fill="#027BFF"/>
<path d="M2732.01 10998.3V10972.5L2765.31 10966.8V10890L2673.79 10730.7L2649.28 10726.8V10700.9H2751.83V10726.8L2717.92 10730.7L2781.04 10847.5L2785.33 10855.5L2785.53 10855.1L2789.62 10847.5L2855.81 10730.7L2820.67 10726.8V10700.9H2921.18V10726.8L2895.23 10730.7L2805.35 10887V10966.8L2838.65 10972.5V10998.3H2732.01ZM3100.56 11002.6C3080.13 11002.6 3062.5 10997.8 3047.65 10988.3C3032.94 10978.6 3021.57 10965.3 3013.54 10948.4C3005.5 10931.4 3001.48 10912 3001.48 10890.2V10885.7C3001.48 10863.9 3005.5 10844.6 3013.54 10827.7C3021.57 10810.7 3032.94 10797.3 3047.65 10787.7C3062.5 10778 3080 10773.2 3100.15 10773.2C3120.58 10773.2 3138.15 10778 3152.86 10787.7C3167.7 10797.3 3179.14 10810.6 3187.18 10827.5C3195.21 10844.4 3199.23 10863.8 3199.23 10885.7V10890.2C3199.23 10912.1 3195.21 10931.6 3187.18 10948.6C3179.14 10965.5 3167.77 10978.7 3153.06 10988.3C3138.35 10997.8 3120.85 11002.6 3100.56 11002.6ZM3100.56 10971.1C3113.36 10971.1 3124.05 10967.6 3132.63 10960.7C3141.35 10953.6 3147.89 10944 3152.24 10931.9C3156.74 10919.6 3158.98 10905.7 3158.98 10890.2V10885.7C3158.98 10870.2 3156.74 10856.4 3152.24 10844.3C3147.89 10832 3141.35 10822.4 3132.63 10815.5C3123.92 10808.4 3113.09 10804.8 3100.15 10804.8C3087.35 10804.8 3076.59 10808.4 3067.87 10815.5C3059.16 10822.4 3052.62 10832 3048.26 10844.3C3043.91 10856.4 3041.73 10870.2 3041.73 10885.7V10890.2C3041.73 10905.7 3043.91 10919.6 3048.26 10931.9C3052.62 10944 3059.16 10953.6 3067.87 10960.7C3076.73 10967.6 3087.62 10971.1 3100.56 10971.1ZM3407.01 11002.6C3383.04 11002.6 3364.31 10994.9 3350.83 10979.5C3337.35 10964.1 3330.61 10940.1 3330.61 10907.6V10808.9L3305.27 10803.2V10777.3H3330.61H3370.85V10908C3370.85 10931.6 3374.32 10947.8 3381.27 10956.6C3388.21 10965.5 3399.04 10969.9 3413.75 10969.9C3428.05 10969.9 3439.83 10967 3449.09 10961.3C3458.49 10955.5 3465.57 10947.2 3470.33 10936.6V10808.9L3440.71 10803.2V10777.3H3470.33H3510.58V10966.8L3535.91 10972.5V10998.3H3474.42L3471.76 10965.6C3464.82 10977.4 3455.83 10986.6 3444.8 10993C3433.9 10999.4 3421.31 11002.6 3407.01 11002.6ZM3643.38 10998.3V10972.5L3676.68 10966.8V10808.9L3643.38 10803.2V10777.3H3712.64L3716.11 10805.4L3716.52 10809.3C3722.78 10798 3730.48 10789.2 3739.6 10782.8C3748.86 10776.4 3759.42 10773.2 3771.26 10773.2C3775.49 10773.2 3779.78 10773.6 3784.13 10774.4C3788.63 10775.1 3791.83 10775.8 3793.74 10776.4L3788.42 10813.8L3760.44 10812.2C3749.81 10811.5 3740.89 10814 3733.68 10819.5C3726.46 10825 3720.87 10832.3 3716.93 10841.6V10966.8L3750.22 10972.5V10998.3H3643.38ZM4080.59 10998.3V10972.5L4102.66 10969.5L4206.64 10700.9H4241.16L4343.3 10969.5L4365.16 10972.5V10998.3H4279.77V10972.5L4302.24 10968.7L4282.63 10913.9H4163.53L4143.31 10968.7L4165.78 10972.5V10998.3H4080.59ZM4175.99 10880.2H4270.37L4226.66 10759.3L4224.2 10752.5H4222.98L4220.53 10759.3L4175.99 10880.2ZM4472.23 10998.3V10972.5L4505.52 10966.8V10711.3L4472.23 10705.6V10679.6H4545.77V10966.8L4579.07 10972.5V10998.3H4472.23ZM4685.32 10998.3V10972.5L4718.61 10966.8V10711.3L4685.32 10705.6V10679.6H4758.86V10966.8L4792.16 10972.5V10998.3H4685.32ZM5082.69 10998.3V10972.5L5115.99 10966.8V10808.9L5082.69 10803.2V10777.3H5156.23V10966.8L5189.53 10972.5V10998.3H5082.69ZM5113.95 10722.7V10679.6H5156.23V10722.7H5113.95ZM5296.8 10998.3V10972.5L5330.1 10966.8V10808.9L5296.8 10803.2V10777.3H5366.05L5368.91 10810.1C5376.27 10798.4 5385.46 10789.4 5396.49 10783C5407.66 10776.4 5420.33 10773.2 5434.49 10773.2C5458.32 10773.2 5476.78 10780.2 5489.85 10794.2C5502.92 10808.1 5509.46 10829.6 5509.46 10858.8V10966.8L5542.76 10972.5V10998.3H5435.92V10972.5L5469.22 10966.8V10859.6C5469.22 10840.1 5465.34 10826.3 5457.57 10818.1C5449.95 10809.9 5438.23 10805.9 5422.44 10805.9C5410.86 10805.9 5400.58 10808.6 5391.59 10814.2C5382.74 10819.8 5375.66 10827.4 5370.34 10837.1V10966.8L5403.64 10972.5V10998.3H5296.8ZM5957.29 11002.6C5938.09 11002.6 5920.86 10998.9 5905.61 10991.5C5890.36 10984.2 5877.35 10973.8 5866.59 10960.5C5855.97 10947 5847.8 10931.1 5842.08 10912.7C5836.5 10894.3 5833.7 10874 5833.7 10851.8V10847.5C5833.7 10825.5 5836.5 10805.2 5842.08 10786.9C5847.8 10768.3 5855.97 10752.3 5866.59 10738.8C5877.35 10725.4 5890.36 10714.9 5905.61 10707.6C5920.86 10700.2 5938.09 10696.6 5957.29 10696.6C5977.59 10696.6 5995.43 10700.2 6010.82 10707.6C6026.2 10714.9 6039.07 10725.4 6049.42 10738.8C6059.91 10752.3 6067.81 10768.3 6073.12 10786.9C6078.43 10805.2 6081.09 10825.5 6081.09 10847.5V10851.8C6081.09 10874 6078.43 10894.3 6073.12 10912.7C6067.81 10931.1 6059.91 10947 6049.42 10960.5C6039.07 10973.8 6026.2 10984.2 6010.82 10991.5C5995.43 10998.9 5977.59 11002.6 5957.29 11002.6ZM5957.29 10969.1C5977.04 10969.1 5992.97 10964.2 6005.1 10954.4C6017.35 10944.6 6026.34 10930.9 6032.06 10913.3C6037.78 10895.6 6040.64 10875.1 6040.64 10851.8V10847.1C6040.64 10824 6037.71 10803.7 6031.86 10786.2C6026.14 10768.7 6017.15 10755 6004.89 10745.2C5992.63 10735.2 5976.77 10730.3 5957.29 10730.3C5939.45 10730.3 5924.34 10735.2 5911.94 10745.2C5899.55 10755.1 5890.15 10768.9 5883.75 10786.4C5877.35 10803.9 5874.15 10824.1 5874.15 10847.1V10851.8C5874.15 10875 5877.35 10895.4 5883.75 10913.1C5890.15 10930.7 5899.55 10944.4 5911.94 10954.4C5924.34 10964.2 5939.45 10969.1 5957.29 10969.1ZM6190.2 10998.3V10972.5L6223.5 10966.8V10808.9L6190.2 10803.2V10777.3H6259.45L6262.31 10810.1C6269.66 10798.4 6278.86 10789.4 6289.89 10783C6301.06 10776.4 6313.72 10773.2 6327.88 10773.2C6351.72 10773.2 6370.17 10780.2 6383.24 10794.2C6396.32 10808.1 6402.86 10829.6 6402.86 10858.8V10966.8L6436.15 10972.5V10998.3H6329.31V10972.5L6362.61 10966.8V10859.6C6362.61 10840.1 6358.73 10826.3 6350.97 10818.1C6343.34 10809.9 6331.63 10805.9 6315.83 10805.9C6304.26 10805.9 6293.97 10808.6 6284.99 10814.2C6276.13 10819.8 6269.05 10827.4 6263.74 10837.1V10966.8L6297.04 10972.5V10998.3H6190.2ZM6641.68 11002.6C6621.26 11002.6 6603.48 10997.9 6588.37 10988.7C6573.25 10979.3 6561.54 10966.3 6553.23 10949.7C6545.06 10933.1 6540.97 10913.8 6540.97 10892.1V10883.1C6540.97 10862.1 6545.26 10843.4 6553.84 10826.9C6562.56 10810.3 6574.07 10797.2 6588.37 10787.7C6602.8 10778 6618.53 10773.2 6635.56 10773.2C6655.44 10773.2 6672.05 10777.3 6685.4 10785.4C6698.88 10793.6 6709.03 10805.1 6715.84 10819.9C6722.65 10834.7 6726.05 10852 6726.05 10872V10897.2H6582.65L6582.03 10898.2C6582.31 10912.4 6584.76 10924.9 6589.39 10936C6594.16 10946.9 6600.96 10955.5 6609.82 10961.7C6618.67 10968 6629.29 10971.1 6641.68 10971.1C6655.3 10971.1 6667.22 10969.2 6677.43 10965.4C6687.78 10961.4 6696.7 10956.1 6704.19 10949.3L6719.92 10975.4C6712.03 10983 6701.54 10989.5 6688.47 10994.8C6675.53 11000 6659.93 11002.6 6641.68 11002.6ZM6583.87 10865.7H6685.81V10860.4C6685.81 10849.8 6683.9 10840.3 6680.09 10832C6676.41 10823.6 6670.83 10817 6663.34 10812.2C6655.98 10807.3 6646.72 10804.8 6635.56 10804.8C6626.57 10804.8 6618.4 10807.5 6611.04 10812.8C6603.69 10818 6597.63 10825.1 6592.86 10834C6588.1 10843 6584.96 10853.2 6583.46 10864.7L6583.87 10865.7ZM7095.44 10998.3V10972.5L7128.74 10966.8V10731.3H7061.33L7055.4 10772.6H7025.17V10700.9H7272.35V10772.6H7242.52L7236.4 10731.3H7168.98V10966.8L7202.28 10972.5V10998.3H7095.44ZM7371.45 10998.3V10972.5L7404.75 10966.8V10808.9L7371.45 10803.2V10777.3H7440.7L7444.18 10805.4L7444.58 10809.3C7450.85 10798 7458.54 10789.2 7467.67 10782.8C7476.93 10776.4 7487.48 10773.2 7499.33 10773.2C7503.55 10773.2 7507.84 10773.6 7512.2 10774.4C7516.69 10775.1 7519.9 10775.8 7521.8 10776.4L7516.49 10813.8L7488.5 10812.2C7477.88 10811.5 7468.96 10814 7461.74 10819.5C7454.53 10825 7448.94 10832.3 7444.99 10841.6V10966.8L7478.29 10972.5V10998.3H7371.45ZM7723.04 11002.6C7699.07 11002.6 7680.35 10994.9 7666.87 10979.5C7653.38 10964.1 7646.64 10940.1 7646.64 10907.6V10808.9L7621.31 10803.2V10777.3H7646.64H7686.89V10908C7686.89 10931.6 7690.36 10947.8 7697.3 10956.6C7704.25 10965.5 7715.08 10969.9 7729.78 10969.9C7744.08 10969.9 7755.86 10967 7765.13 10961.3C7774.52 10955.5 7781.6 10947.2 7786.37 10936.6V10808.9L7756.75 10803.2V10777.3H7786.37H7826.61V10966.8L7851.95 10972.5V10998.3H7790.46L7787.8 10965.6C7780.86 10977.4 7771.87 10986.6 7760.84 10993C7749.94 10999.4 7737.34 11002.6 7723.04 11002.6ZM8059.72 11002.6C8039.7 11002.6 8022.27 10997.9 8007.43 10988.7C7992.58 10979.3 7981.07 10966.3 7972.9 10949.7C7964.73 10933.1 7960.65 10913.8 7960.65 10892.1V10883.5C7960.65 10862.5 7964.6 10843.7 7972.5 10827.1C7980.39 10810.5 7991.77 10797.3 8006.61 10787.7C8021.45 10778 8039.16 10773.2 8059.72 10773.2C8077.56 10773.2 8093.16 10776.1 8106.5 10782C8119.99 10787.8 8131.29 10795.8 8140.41 10806.1L8141.44 10859.2H8109.98L8103.03 10820.6C8098.4 10815.8 8092.61 10812 8085.67 10809.1C8078.72 10806.3 8070.55 10804.8 8061.15 10804.8C8049.17 10804.8 8038.61 10808.4 8029.49 10815.5C8020.5 10822.5 8013.49 10832 8008.45 10843.8C8003.41 10855.7 8000.89 10868.9 8000.89 10883.5V10892.1C8000.89 10908.1 8003.21 10922.1 8007.84 10933.9C8012.6 10945.8 8019.34 10955 8028.06 10961.5C8036.91 10967.9 8047.4 10971.1 8059.52 10971.1C8073.14 10971.1 8084.44 10967.4 8093.43 10959.9C8102.42 10952.4 8107.93 10942.1 8109.98 10929H8146.13L8146.54 10930.3C8145.86 10942.9 8142.12 10954.8 8135.31 10965.8C8128.5 10976.8 8118.76 10985.8 8106.1 10992.6C8093.57 10999.2 8078.11 11002.6 8059.72 11002.6ZM8255.45 10998.3V10972.5L8288.75 10966.8V10711.3L8255.45 10705.6V10679.6H8328.99V10966.8L8362.29 10972.5V10998.3H8255.45ZM8397.42 10998.3V10972.5L8419.9 10969.9L8419.28 10969.1L8355.34 10886.5L8376.18 10854.5L8465.45 10967.6L8497.32 10972.5V10998.3H8397.42ZM8326.13 10934.3L8311.22 10902.7L8407.23 10807.1L8408.25 10805.9L8384.56 10803.2V10777.3H8479.75V10803.2L8451.36 10808.5L8326.13 10934.3ZM8892.45 11002.6C8874.33 11002.6 8856.9 10999.9 8840.15 10994.6C8823.4 10989.3 8807.4 10981.1 8792.15 10970.1V10906.6H8823.4L8830.14 10953.3C8838.99 10958.8 8848.59 10963 8858.95 10966C8869.3 10969 8880.46 10970.5 8892.45 10970.5C8906.07 10970.5 8917.57 10968.5 8926.97 10964.4C8936.5 10960.2 8943.79 10954.4 8948.83 10947C8953.87 10939.7 8956.39 10931.1 8956.39 10921.3C8956.39 10912.1 8954.21 10904.1 8949.85 10897.2C8945.49 10890.2 8938.27 10884.2 8928.2 10879C8918.25 10873.7 8904.64 10869 8887.34 10865.1C8866.91 10860.3 8849.62 10854 8835.45 10846.1C8821.43 10838.1 8810.73 10828.4 8803.38 10817.1C8796.16 10805.6 8792.55 10792.6 8792.55 10777.9C8792.55 10762.3 8796.64 10748.4 8804.81 10736.2C8813.12 10723.9 8824.63 10714.3 8839.33 10707.2C8854.04 10700.1 8871.2 10696.6 8890.81 10696.6C8911.65 10696.6 8930.03 10699.8 8945.97 10706.2C8962.04 10712.4 8975.25 10720.1 8985.6 10729V10788.5H8954.34L8947.6 10746C8941.47 10741.1 8933.85 10737 8924.72 10733.7C8915.6 10730.5 8904.3 10728.8 8890.81 10728.8C8879.37 10728.8 8869.3 10730.9 8860.58 10735C8851.86 10738.9 8845.05 10744.5 8840.15 10751.7C8835.25 10758.9 8832.8 10767.4 8832.8 10777.3C8832.8 10785.8 8834.98 10793.3 8839.33 10799.7C8843.83 10806.1 8851.05 10811.8 8860.99 10816.7C8871.07 10821.4 8884.48 10825.9 8901.23 10830.2C8932.55 10837.9 8956.25 10849.4 8972.32 10864.7C8988.53 10879.8 8996.63 10898.5 8996.63 10920.9C8996.63 10936.8 8992.34 10951 8983.76 10963.4C8975.18 10975.6 8963.06 10985.2 8947.4 10992.2C8931.87 10999.1 8913.56 11002.6 8892.45 11002.6ZM9209.52 11002.6C9189.09 11002.6 9171.45 10997.8 9156.61 10988.3C9141.9 10978.6 9130.53 10965.3 9122.49 10948.4C9114.46 10931.4 9110.44 10912 9110.44 10890.2V10885.7C9110.44 10863.9 9114.46 10844.6 9122.49 10827.7C9130.53 10810.7 9141.9 10797.3 9156.61 10787.7C9171.45 10778 9188.95 10773.2 9209.11 10773.2C9229.54 10773.2 9247.1 10778 9261.81 10787.7C9276.66 10797.3 9288.1 10810.6 9296.13 10827.5C9304.17 10844.4 9308.18 10863.8 9308.18 10885.7V10890.2C9308.18 10912.1 9304.17 10931.6 9296.13 10948.6C9288.1 10965.5 9276.72 10978.7 9262.02 10988.3C9247.31 10997.8 9229.81 11002.6 9209.52 11002.6ZM9209.52 10971.1C9222.32 10971.1 9233.01 10967.6 9241.59 10960.7C9250.3 10953.6 9256.84 10944 9261.2 10931.9C9265.69 10919.6 9267.94 10905.7 9267.94 10890.2V10885.7C9267.94 10870.2 9265.69 10856.4 9261.2 10844.3C9256.84 10832 9250.3 10822.4 9241.59 10815.5C9232.87 10808.4 9222.05 10804.8 9209.11 10804.8C9196.31 10804.8 9185.55 10808.4 9176.83 10815.5C9168.12 10822.4 9161.58 10832 9157.22 10844.3C9152.86 10856.4 9150.68 10870.2 9150.68 10885.7V10890.2C9150.68 10905.7 9152.86 10919.6 9157.22 10931.9C9161.58 10944 9168.12 10953.6 9176.83 10960.7C9185.68 10967.6 9196.58 10971.1 9209.52 10971.1ZM9412.6 10998.3V10972.5L9445.89 10966.8V10711.3L9412.6 10705.6V10679.6H9486.14V10966.8L9519.44 10972.5V10998.3H9412.6ZM9724.97 11002.6C9701 11002.6 9682.27 10994.9 9668.79 10979.5C9655.31 10964.1 9648.57 10940.1 9648.57 10907.6V10808.9L9623.23 10803.2V10777.3H9648.57H9688.81V10908C9688.81 10931.6 9692.28 10947.8 9699.23 10956.6C9706.17 10965.5 9717 10969.9 9731.71 10969.9C9746.01 10969.9 9757.79 10967 9767.05 10961.3C9776.45 10955.5 9783.53 10947.2 9788.29 10936.6V10808.9L9758.67 10803.2V10777.3H9788.29H9828.54V10966.8L9853.87 10972.5V10998.3H9792.38L9789.72 10965.6C9782.78 10977.4 9773.79 10986.6 9762.76 10993C9751.86 10999.4 9739.27 11002.6 9724.97 11002.6ZM10039.8 11001.8C10023.4 11001.8 10010.4 10997 10000.8 10987.5C9991.24 10977.8 9986.47 10962.4 9986.47 10941.3V10807.1H9951.54V10777.3H9986.47V10723.9H10026.7V10777.3H10074.7V10807.1H10026.7V10941.3C10026.7 10951.9 10028.8 10959.7 10033 10964.8C10037.3 10969.8 10042.9 10972.3 10050 10972.3C10054.8 10972.3 10060.1 10971.9 10065.9 10971.1C10071.8 10970.2 10076.4 10969.3 10079.6 10968.7L10085.1 10995C10079.3 10996.8 10072.1 10998.4 10063.5 10999.7C10055 11001.1 10047.1 11001.8 10039.8 11001.8ZM10188.9 10998.3V10972.5L10222.2 10966.8V10808.9L10188.9 10803.2V10777.3H10262.5V10966.8L10295.8 10972.5V10998.3H10188.9ZM10220.2 10722.7V10679.6H10262.5V10722.7H10220.2ZM10502.9 11002.6C10482.5 11002.6 10464.9 10997.8 10450 10988.3C10435.3 10978.6 10424 10965.3 10415.9 10948.4C10407.9 10931.4 10403.9 10912 10403.9 10890.2V10885.7C10403.9 10863.9 10407.9 10844.6 10415.9 10827.7C10424 10810.7 10435.3 10797.3 10450 10787.7C10464.9 10778 10482.4 10773.2 10502.5 10773.2C10523 10773.2 10540.5 10778 10555.2 10787.7C10570.1 10797.3 10581.5 10810.6 10589.6 10827.5C10597.6 10844.4 10601.6 10863.8 10601.6 10885.7V10890.2C10601.6 10912.1 10597.6 10931.6 10589.6 10948.6C10581.5 10965.5 10570.2 10978.7 10555.4 10988.3C10540.7 10997.8 10523.2 11002.6 10502.9 11002.6ZM10502.9 10971.1C10515.7 10971.1 10526.4 10967.6 10535 10960.7C10543.7 10953.6 10550.3 10944 10554.6 10931.9C10559.1 10919.6 10561.4 10905.7 10561.4 10890.2V10885.7C10561.4 10870.2 10559.1 10856.4 10554.6 10844.3C10550.3 10832 10543.7 10822.4 10535 10815.5C10526.3 10808.4 10515.5 10804.8 10502.5 10804.8C10489.7 10804.8 10479 10808.4 10470.3 10815.5C10461.5 10822.4 10455 10832 10450.6 10844.3C10446.3 10856.4 10444.1 10870.2 10444.1 10885.7V10890.2C10444.1 10905.7 10446.3 10919.6 10450.6 10931.9C10455 10944 10461.5 10953.6 10470.3 10960.7C10479.1 10967.6 10490 10971.1 10502.9 10971.1ZM10712.2 10998.3V10972.5L10745.4 10966.8V10808.9L10712.2 10803.2V10777.3H10781.4L10784.3 10810.1C10791.6 10798.4 10800.8 10789.4 10811.8 10783C10823 10776.4 10835.7 10773.2 10849.8 10773.2C10873.7 10773.2 10892.1 10780.2 10905.2 10794.2C10918.3 10808.1 10924.8 10829.6 10924.8 10858.8V10966.8L10958.1 10972.5V10998.3H10851.3V10972.5L10884.6 10966.8V10859.6C10884.6 10840.1 10880.7 10826.3 10872.9 10818.1C10865.3 10809.9 10853.6 10805.9 10837.8 10805.9C10826.2 10805.9 10815.9 10808.6 10806.9 10814.2C10798.1 10819.8 10791 10827.4 10785.7 10837.1V10966.8L10819 10972.5V10998.3H10712.2Z" fill="black"/>
</svg>
